# xmcd CD database file
#
# Track frame offsets:
#	150
#	37177
#	58725
#	98950
#	133640
#	160032
#	183212
#
# Disc length: 2554 seconds
#
# Revision: 0
# Processed by: cddbd v1.5.1PL0 Copyright (c) Steve Scherf et al.
# Submitted via: CDex 1.51
#
DISCID=5a09f807
DTITLE=Manuel Dunkel - Manuel Dunkel Quartet
DYEAR=1998
DGENRE=Jazz
TTITLE0=tropic topic
TTITLE1=flow
TTITLE2=grand total
TTITLE3=low tech
TTITLE4=may day
TTITLE5=dialog
TTITLE6=tropic topic part 2
EXTD=YEAR: 1998
EXTT0=
EXTT1=
EXTT2=
EXTT3=
EXTT4=
EXTT5=
EXTT6=
PLAYORDER=
